<svg version="1.0" xmlns="http://www.w3.org/2000/svg" width="500.000000ptpx" height="500.000000ptpx" viewBox="0 0 500.000000 500.000000" preserveAspectRatio="xMidYMid meet" transform="rotate(0) scale(1, 1)">

<g transform="translate(0.000000,500.000000) scale(0.100000,-0.100000)" fill="#ffffff" stroke="none">
<path d="M1782 3955 c-162 -30 -185 -41 -335 -159 -38 -29 -93 -66 -123 -81&#xA;-49 -25 -61 -27 -122 -21 -37 3 -96 13 -132 21 -36 8 -107 22 -159 31 -89 16&#xA;-99 16 -175 -1 -44 -9 -98 -26 -120 -37 -50 -26 -129 -104 -155 -155 -30 -60&#xA;-57 -174 -71 -298 -10 -94 -9 -119 4 -168 24 -92 78 -162 154 -201 52 -26 157&#xA;-48 262 -52 160 -8 150 -2 150 -84 0 -94 -33 -158 -184 -360 -102 -137 -285&#xA;-434 -317 -516 -39 -99 -48 -207 -25 -309 28 -131 74 -187 165 -206 91 -19&#xA;280 -4 466 37 88 20 198 40 245 45 227 25 367 57 498 113 71 31 110 53 208&#xA;121 10 7 17 7 22 0 35 -49 152 -95 239 -95 74 0 224 39 291 76 34 18 65 34 67&#xA;34 11 0 35 -63 35 -92 0 -18 -12 -76 -25 -127 -29 -112 -30 -140 -9 -229 45&#xA;-182 217 -278 449 -251 97 11 252 48 335 81 53 21 151 81 198 122 22 20 22 20&#xA;116 -3 l93 -23 83 21 c128 33 277 141 346 248 41 64 56 101 80 203 27 109 24&#xA;386 -6 525 -27 129 -42 158 -145 285 -48 58 -93 118 -102 134 l-15 29 29 -8&#xA;c112 -30 196 -14 305 61 173 118 243 346 180 586 -36 139 -88 207 -231 304&#xA;-53 36 -123 85 -156 110 -33 24 -82 51 -109 59 -121 36 -351 1 -471 -72 -145&#xA;-88 -339 -290 -361 -378 -5 -21 -11 -25 -28 -21 -82 20 -160 25 -233 15 -69&#xA;-9 -303 -66 -343 -83 -13 -5 -20 12 -39 96 -20 86 -64 224 -100 313 -29 70&#xA;-145 156 -228 170 -24 4 -43 10 -43 14 0 20 -83 99 -128 124 -46 25 -204 68&#xA;-242 66 -8 -1 -48 -7 -88 -14z m208 -86 c68 -14 138 -63 178 -124 32 -48 36&#xA;-50 90 -57 63 -9 117 -40 157 -92 34 -44 108 -259 139 -404 13 -63 26 -116 29&#xA;-119 3 -2 19 3 35 11 84 43 238 87 377 106 81 12 99 11 185 -7 52 -11 102 -23&#xA;111 -27 14 -6 18 1 24 44 9 66 60 143 162 243 155 153 244 197 428 216 117 12&#xA;177 -3 251 -60 31 -24 95 -70 143 -102 47 -32 96 -67 108 -79 70 -66 123 -212&#xA;123 -338 -1 -89 -30 -191 -75 -256 -44 -64 -146 -135 -219 -153 -108 -26 -216&#xA;41 -281 177 l-31 63 -34 -23 c-22 -15 -36 -33 -38 -50 -5 -42 150 -291 270&#xA;-433 116 -137 132 -183 150 -417 23 -322 -26 -491 -179 -613 -163 -130 -272&#xA;-150 -430 -79 -65 28 -63 28 -63 10 0 -18 -36 -63 -64 -78 -13 -7 -42 -26 -64&#xA;-41 -50 -35 -184 -81 -314 -107 -115 -24 -162 -25 -246 -5 -106 25 -169 80&#xA;-197 173 -21 67 -18 118 10 228 14 53 25 112 25 130 0 32 -40 125 -73 168 -16&#xA;22 -15 22 -147 -50 -71 -40 -209 -69 -289 -61 -75 6 -113 28 -168 95 l-42 52&#xA;-17 -26 c-10 -14 -45 -45 -80 -70 -135 -96 -328 -163 -535 -184 -103 -10 -197&#xA;-26 -329 -54 -188 -40 -233 -46 -342 -46 -68 0 -128 5 -143 12 -37 17 -61 62&#xA;-79 149 -16 80 -11 155 18 235 26 75 217 387 321 525 58 77 125 178 150 224&#xA;43 80 45 89 45 164 0 142 -23 161 -209 172 -132 8 -210 25 -262 56 -44 25 -89&#xA;83 -100 129 -21 90 19 349 66 430 39 66 108 121 168 134 115 25 162 21 402&#xA;-30 88 -19 198 -14 247 11 52 26 151 95 214 150 26 23 59 45 73 51 90 35 255&#xA;48 351 27z"/>
<path d="M1780 3760 c-67 -11 -108 -32 -180 -90 -211 -172 -313 -199 -551&#xA;-144 -81 19 -145 27 -220 28 -100 1 -107 0 -141 -26 -20 -15 -46 -48 -58 -73&#xA;-27 -56 -49 -177 -50 -273 0 -70 2 -76 30 -102 37 -34 90 -46 245 -55 141 -8&#xA;177 -18 225 -61 56 -51 80 -121 80 -234 0 -89 0 -91 -53 -192 -30 -57 -97&#xA;-159 -149 -228 -108 -142 -135 -183 -241 -366 -92 -159 -112 -214 -104 -292 3&#xA;-31 10 -69 16 -85 l11 -27 117 6 c65 3 172 17 238 31 215 45 252 51 357 63&#xA;197 21 328 59 463 135 126 70 168 141 145 242 -14 64 -75 136 -148 176 -27 15&#xA;-113 49 -190 76 -164 57 -231 91 -288 146 -54 52 -73 108 -56 172 20 73 127&#xA;282 183 356 59 78 125 133 179 147 26 7 62 7 116 -1 91 -12 130 -7 203 28 46&#xA;22 56 33 76 77 69 156 92 392 47 471 -51 89 -151 121 -302 95z"/>
<path d="M2199 3564 c-8 -10 -21 -42 -30 -73 -9 -31 -29 -94 -44 -141 -27 -82&#xA;-28 -92 -27 -277 2 -188 1 -194 -27 -270 -16 -43 -32 -108 -35 -146 -6 -56&#xA;-13 -72 -37 -96 -16 -16 -45 -35 -65 -41 -42 -14 -149 -7 -170 11 -25 20 -15&#xA;67 40 196 72 169 82 209 63 256 -12 28 -24 38 -55 48 -81 24 -176 -34 -275&#xA;-169 -135 -185 -171 -304 -121 -403 33 -65 163 -136 309 -168 55 -12 119 -31&#xA;143 -42 46 -21 41 -13 214 -294 117 -189 125 -194 258 -172 67 11 106 24 157&#xA;53 37 22 82 44 98 50 38 14 50 47 36 100 -13 50 -64 110 -144 171 -89 67 -146&#xA;123 -168 165 -37 72 -30 77 126 104 55 9 106 21 113 26 6 6 12 30 12 54 0 34&#xA;-6 51 -29 76 -28 31 -33 33 -125 39 -97 6 -136 22 -136 55 0 7 27 40 59 72 33&#xA;33 72 84 87 113 56 110 41 276 -50 539 -44 126 -50 137 -89 160 -39 24 -70 25&#xA;-88 4z"/>
<path d="M3843 3535 c-100 -22 -177 -69 -284 -175 -53 -52 -105 -111 -114&#xA;-130 -27 -52 -23 -106 12 -175 17 -33 56 -141 87 -240 31 -99 61 -190 67 -203&#xA;34 -82 -30 -236 -115 -276 -58 -27 -104 -21 -206 30 -51 26 -110 49 -130 51&#xA;-31 4 -40 1 -58 -22 -19 -24 -22 -41 -22 -115 0 -117 32 -228 117 -398 62&#xA;-124 71 -138 152 -214 117 -109 271 -224 356 -265 98 -47 151 -46 233 4 129&#xA;79 192 163 212 284 22 140 6 437 -29 513 -10 22 -51 82 -91 131 -81 99 -223&#xA;311 -264 392 -65 130 -7 256 137 295 64 17 100 0 127 -61 60 -132 102 -181&#xA;157 -181 58 0 159 75 195 144 26 50 36 187 19 267 -18 86 -61 138 -180 219&#xA;-59 39 -125 87 -149 105 -39 32 -49 35 -105 34 -34 0 -90 -7 -124 -14z"/>
<path d="M2975 3074 c-147 -22 -320 -88 -411 -155 -67 -49 -100 -92 -115 -150&#xA;-20 -76 -4 -100 96 -144 46 -21 97 -52 114 -69 72 -75 80 -172 25 -323 -57&#xA;-160 -54 -175 71 -368 123 -188 130 -218 85 -398 -29 -117 -31 -137 -21 -174&#xA;32 -116 163 -143 395 -83 125 32 180 55 211 90 11 12 33 29 49 37 26 14 28 18&#xA;23 59 -6 57 -61 129 -167 219 -125 105 -241 258 -298 392 -58 137 -87 388 -50&#xA;444 24 38 117 47 196 19 112 -40 211 -20 261 51 22 32 23 40 17 144 -12 222&#xA;-74 332 -219 387 -52 20 -196 32 -262 22z"/>
<path d="M1902 2666 c-14 -30 -9 -47 9 -29 6 6 9 21 7 34 -3 23 -3 23 -16 -5z"/>
<path d="M2533 2327 c-29 -5 -53 -13 -53 -16 1 -3 20 -20 44 -38 l43 -31 13&#xA;36 c7 21 15 43 17 50 3 6 1 11 -3 11 -5 -1 -33 -6 -61 -12z"/>
</g>
</svg>